<svg width="30" height="30" viewBox="0 0 30 30" fill="none" xmlns="http://www.w3.org/2000/svg">
<circle cx="15" cy="15" r="15" fill="url(#paint0_linear_5_277)"/>
<path d="M18 9.30907C18 9.22806 17.9665 9.15036 17.9068 9.09308C17.8471 9.03579 17.7662 9.00361 17.6818 9.00361H16.0909C15.2898 8.9653 14.5055 9.23294 13.9093 9.74806C13.3131 10.2632 12.9535 10.9839 12.9091 11.7527V13.4022H11.3182C11.2338 13.4022 11.1529 13.4343 11.0932 13.4916C11.0335 13.5489 11 13.6266 11 13.7076V15.296C11 15.377 11.0335 15.4547 11.0932 15.512C11.1529 15.5693 11.2338 15.6014 11.3182 15.6014H12.9091V19.6945C12.9091 19.7756 12.9426 19.8533 13.0023 19.9105C13.062 19.9678 13.1429 20 13.2273 20H15.1364C15.2208 20 15.3017 19.9678 15.3614 19.9105C15.421 19.8533 15.4545 19.7756 15.4545 19.6945V15.6014H17.1218C17.1926 15.6024 17.2617 15.5807 17.3181 15.5398C17.3746 15.4988 17.4152 15.441 17.4336 15.3754L17.8918 13.787C17.9045 13.7419 17.9062 13.6946 17.8968 13.6487C17.8874 13.6029 17.8672 13.5597 17.8377 13.5225C17.8082 13.4853 17.7702 13.4551 17.7266 13.4343C17.683 13.4134 17.6351 13.4024 17.5864 13.4022H15.4545V11.7527C15.4704 11.6015 15.5443 11.4614 15.662 11.3597C15.7797 11.258 15.9326 11.2021 16.0909 11.2029H17.6818C17.7662 11.2029 17.8471 11.1707 17.9068 11.1134C17.9665 11.0561 18 10.9784 18 10.8974V9.30907Z" fill="white"/>
<defs>
<linearGradient id="paint0_linear_5_277" x1="15" y1="0" x2="15" y2="30" gradientUnits="userSpaceOnUse">
<stop stop-color="#3874CB"/>
<stop offset="1" stop-color="#1C57AE"/>
</linearGradient>
</defs>
</svg>
