<svg width="670" height="323" viewBox="0 0 670 323" fill="none" xmlns="http://www.w3.org/2000/svg">
<g clip-path="url(#clip0_1347_151)">
<path d="M136.21 4.57184C144.92 3.41823 195.646 1.36736 219.678 0.966797V125.221L219.316 187.348L218.953 249.474H93.8714C66.1295 245.869 9.62907 236.737 5.56454 229.046C0.483871 219.432 3.62904 186.026 3.87099 176.412C4.06453 168.721 4.75792 144.207 5.08067 132.911C5.56454 129.387 6.77423 120.029 7.74197 110.8C8.95166 99.2643 16.4517 79.0761 17.4194 76.9131C18.1936 75.1826 20.3227 74.59 21.2904 74.5097C21.1293 72.9076 21.0485 69.2704 22.0162 67.5399C23.2259 65.3769 28.5485 58.4072 30.2421 57.2055C31.5969 56.2441 37.2582 55.8437 39.9195 55.7635C42.0162 54.6421 46.7422 52.2546 48.8712 51.6777C51.5325 50.9567 61.21 41.5836 63.1455 38.9399C65.0809 36.2962 81.7746 22.8374 84.6778 20.434C87.5811 18.0307 96.5327 12.2626 100.646 10.5802C104.759 8.89789 111.775 7.93655 113.71 7.93655C115.646 7.93655 125.323 6.01386 136.21 4.57184Z" fill="white"/>
<path fill-rule="evenodd" clip-rule="evenodd" d="M25.3341 63.2205C27.0146 60.4389 30.1835 58.2494 31.4841 57.3611L30.9354 56.569C29.6551 57.4433 26.3081 59.74 24.5048 62.7259C24.0243 63.5214 23.5259 64.327 23.0406 65.111C22.4386 66.0829 21.858 67.0217 21.3572 67.8667C20.9013 68.6367 20.5012 69.3472 20.1983 69.9605C19.9007 70.5623 19.6762 71.1117 19.6036 71.5467C19.4812 72.274 19.7144 72.9142 20.0231 73.3973C20.1262 73.5588 20.2399 73.7064 20.357 73.839C20.2046 73.8982 20.0459 73.964 19.8867 74.0356C19.4125 74.25 18.8831 74.5389 18.5289 74.8908C18.4409 74.9778 18.3538 75.1047 18.2749 75.2306C18.1892 75.3671 18.0905 75.5397 17.9807 75.7444C17.7605 76.1544 17.4867 76.7096 17.1721 77.3927C16.5431 78.7602 15.7447 80.6564 14.8791 82.9636C13.1487 87.5786 11.145 93.8509 9.68759 100.849C8.8529 104.856 8.15758 108.012 7.57257 110.665C6.12821 117.22 5.35983 120.707 4.84063 126.378C4.25805 132.744 3.95176 147.803 3.87095 154.53C3.87095 154.532 3.87095 154.534 3.87095 154.536L2.41982 194.18L3.38659 194.214L4.83869 154.553V154.547C4.9195 147.813 5.22579 132.788 5.80451 126.466C6.3179 120.857 7.0708 117.441 8.50693 110.922C9.0929 108.265 9.79211 105.091 10.635 101.044C12.0808 94.1027 14.0691 87.8776 15.7863 83.2996C16.6447 81.0107 17.4339 79.1361 18.0523 77.7926C18.3615 77.1201 18.6267 76.5842 18.8342 76.1972C18.9383 76.0035 19.0259 75.8511 19.096 75.7391C19.1313 75.6834 19.1599 75.6411 19.1821 75.6103C19.2034 75.581 19.2136 75.5699 19.2136 75.5699C19.2136 75.5699 19.2136 75.5699 19.2131 75.5704C19.4396 75.3455 19.8378 75.1138 20.2868 74.9109C20.7247 74.7134 21.1617 74.5653 21.4234 74.4913L22.4294 74.2053L21.5589 73.629C21.3668 73.5016 21.0663 73.2358 20.8399 72.882C20.6163 72.5321 20.4867 72.1307 20.5578 71.7044C20.6062 71.4184 20.7746 70.9762 21.0668 70.384C21.3538 69.8028 21.7399 69.1169 22.1914 68.3546C22.6926 67.5076 23.2612 66.5895 23.8544 65.6311C24.3388 64.849 24.8396 64.0401 25.3341 63.2205Z" fill="#0D0C13"/>
<path fill-rule="evenodd" clip-rule="evenodd" d="M178.569 2.64877L219.693 1.44726L219.664 0.486328L178.529 1.68817L137.39 3.85174C123.799 4.69263 114.076 6.67589 107.552 8.18948C99.3372 10.0953 92.173 14.2516 88.5222 16.6694C86.6752 17.8925 78.6657 24.4596 70.4185 31.6375C66.2877 35.2328 62.0867 38.991 58.553 42.3241C55.028 45.6496 52.1431 48.5745 50.6644 50.4958C50.5845 50.5991 50.4229 50.7323 50.1437 50.887C49.8718 51.038 49.5224 51.1908 49.1044 51.3485C48.3331 51.6398 47.376 51.9306 46.3221 52.2512C46.2307 52.2791 46.1382 52.3069 46.0453 52.3353C43.7513 53.0332 41.0518 53.8749 39.1671 55.1232L37.655 56.1249L39.4685 56.0028C56.6025 54.8497 98.655 52.6502 126.295 52.3988C137.274 52.2988 151.149 52.0839 165.121 51.8671C186.359 51.5379 207.822 51.2052 219.676 51.2682L219.681 50.3069C207.819 50.2439 186.333 50.577 165.084 50.9063C151.115 51.1226 137.249 51.3379 126.287 51.4374C99.7514 51.6787 59.9654 53.7134 41.63 54.8968C43.0874 54.2537 44.7592 53.7321 46.3284 53.2544C46.4237 53.2255 46.5191 53.1967 46.6134 53.1678C47.6566 52.8506 48.6447 52.5506 49.4479 52.2473C49.8873 52.0815 50.2855 51.9094 50.6155 51.7263C50.9392 51.547 51.2349 51.3365 51.4328 51.0798C52.8592 49.2268 55.6909 46.35 59.2198 43.0212C62.7404 39.7 66.9312 35.951 71.0563 32.3606C79.3208 25.1675 87.2771 18.6494 89.0592 17.4692C92.6665 15.0803 99.719 10.994 107.772 9.12564C114.261 7.61998 123.928 5.64802 137.448 4.81138C137.449 4.81133 137.449 4.81129 137.45 4.81124L178.569 2.64877Z" fill="#0D0C13"/>
<path d="M79.1133 70.6642L219.678 69.7029V109.599H146.856H51.0486C37.2582 109.599 31.6937 109.599 26.1292 105.513C20.5646 101.427 22.2582 95.1785 22.742 89.8911C23.1291 85.6612 25.1614 77.8743 26.1292 74.5096C22.5001 74.5096 21.2904 74.7499 20.5646 74.5096C19.1304 74.0347 19.4217 71.5453 19.9056 70.6642H79.1133Z" fill="#0D0C13"/>
<path fill-rule="evenodd" clip-rule="evenodd" d="M218.953 212.222H176.372C174.768 212.222 173.469 210.931 173.469 209.338V171.846C173.469 170.253 174.768 168.962 176.372 168.962H218.953V172.807H178.307C177.238 172.807 176.372 173.668 176.372 174.73V203.57C176.372 204.632 177.238 205.493 178.307 205.493H218.953V212.222Z" fill="#0D0C13"/>
<path fill-rule="evenodd" clip-rule="evenodd" d="M219.195 263.035C198.92 263.431 176.086 263.654 151.936 263.654C68.0243 263.654 -4.57764e-05 260.964 -4.57764e-05 257.646C-4.57764e-05 256.8 4.41917 255.995 12.3944 255.265C10.334 253.671 7.9771 251.227 5.32257 245.389C2.44304 239.054 2.18658 232.373 1.87691 224.31V224.31C1.82222 222.889 1.7661 221.425 1.69351 219.913C1.30641 211.838 3.14514 179.216 4.11288 163.915C4.35481 169.042 4.83868 180.306 4.83868 184.343C4.83868 189.39 7.01613 204.051 11.8549 214.866C16.6936 225.681 22.2581 227.844 30.9678 230.488C37.9356 232.603 49.4359 232.491 54.1938 232.411C53.4399 231.961 52.8931 231.587 52.1663 231.089L52.1654 231.089C51.726 230.788 51.2209 230.442 50.5647 230.007C48.3873 228.565 47.6615 226.642 46.9357 223.518L46.8994 223.361C46.1557 220.166 44.5758 213.377 48.1454 210.54C51.3592 207.986 58.9377 208.071 63.6545 208.124H63.6554C64.2641 208.13 64.825 208.137 65.3229 208.137C68.8067 208.137 95.968 208.617 109.113 208.858C117.581 208.938 135.339 209.338 138.63 210.3C142.743 211.501 144.678 216.789 145.162 218.471C145.549 219.817 146.936 222.236 147.581 223.278L219.195 222.08V263.035ZM86.1294 240.101C78.6468 240.101 72.581 234.076 72.581 226.642C72.581 219.209 78.6468 213.184 86.1294 213.184C93.612 213.184 99.6779 219.209 99.6779 226.642C99.6779 234.076 93.612 240.101 86.1294 240.101Z" fill="#0D0C13"/>
<path d="M86.3713 235.775C81.4275 235.775 77.4197 231.794 77.4197 226.883C77.4197 221.972 81.4275 217.99 86.3713 217.99C91.3152 217.99 95.323 221.972 95.323 226.883C95.323 231.794 91.3152 235.775 86.3713 235.775Z" fill="#0D0C13"/>
<path d="M136.936 10.8205C149.323 10.2437 197.259 8.97792 219.678 8.41711V43.9869C199.678 43.9068 159.146 43.7946 143.468 43.9869C127.791 44.1792 87.0972 46.1499 70.4035 47.1113C72.0971 43.9869 76.452 38.363 81.2907 33.1718C87.3391 26.6827 97.0166 18.2709 102.097 15.6272C107.178 12.9835 121.452 11.5415 136.936 10.8205Z" fill="#0D0C13"/>
<path d="M135.726 53.3601C141.146 53.1678 193.791 52.639 219.437 52.3987H219.678V49.755C199.759 49.9953 155.178 50.5241 136.21 50.7164C117.242 50.9086 73.6295 52.8794 54.1938 53.8407C47.7423 54.2411 34.2582 55.2347 31.9356 56.0038C29.613 56.7728 28.3874 58.2471 28.0647 58.8878C32.0164 58.5672 41.3228 57.7822 46.9357 57.2054C53.9519 56.4844 128.952 53.6004 135.726 53.3601Z" fill="#0D0C13"/>
<path fill-rule="evenodd" clip-rule="evenodd" d="M75.6468 204.71C77.0491 204.745 78.1029 204.772 78.6294 204.772C80.1976 204.772 92.8959 204.892 105.9 205.102C112.401 205.207 118.977 205.335 124.274 205.481C129.587 205.628 133.578 205.793 134.938 205.97C140.18 206.648 141.792 210.911 143.013 214.306C143.987 217.017 146.01 221.71 146.897 223.712L147.782 223.324C146.895 221.321 144.885 216.657 143.924 213.983C142.726 210.65 140.951 205.779 135.063 205.016C133.641 204.832 129.588 204.667 124.301 204.52C118.998 204.374 112.418 204.246 105.916 204.141C92.9114 203.931 80.2063 203.811 78.6294 203.811C78.1155 203.811 77.0844 203.785 75.6957 203.749C74.9795 203.732 74.1681 203.711 73.284 203.69C70.6929 203.63 67.4906 203.57 64.2642 203.57C61.0396 203.57 57.7837 203.63 55.087 203.811C53.7394 203.902 52.5239 204.023 51.5185 204.184C50.5256 204.344 49.6923 204.547 49.1388 204.823C47.0523 205.859 46.1059 207.448 45.9394 209.295C45.7773 211.099 46.3609 213.112 47.2183 215.059L48.1047 214.673C47.2686 212.775 46.7634 210.942 46.9037 209.381C47.0397 207.864 47.7868 206.569 49.5713 205.682C49.9855 205.477 50.6949 205.29 51.6723 205.134C52.6372 204.98 53.8202 204.86 55.1528 204.771C57.8166 204.592 61.0474 204.532 64.2642 204.532C67.4795 204.532 70.6736 204.592 73.2613 204.652C74.1308 204.672 74.9341 204.692 75.6468 204.71Z" fill="#0D0C13"/>
<path fill-rule="evenodd" clip-rule="evenodd" d="M19.8204 164.155C16.4309 164.155 13.8214 164.232 11.8738 164.362C9.93587 164.491 8.6236 164.674 7.84602 164.895C7.34085 165.038 6.53569 165.284 5.79004 165.589C5.41747 165.742 5.04874 165.913 4.73567 166.099C4.43422 166.279 4.13326 166.501 3.95131 166.773L3.93439 166.798L3.196 168.266L4.06212 168.696L4.771 167.286C4.83826 167.198 4.9839 167.072 5.23311 166.924C5.48907 166.772 5.80939 166.621 6.15826 166.478C6.85504 166.193 7.62054 165.959 8.11215 165.819C8.78426 165.628 10.0094 165.45 11.9386 165.321C13.8567 165.194 16.4425 165.116 19.8185 165.116C19.8195 165.116 19.8199 165.116 19.8204 165.116L219.433 166.799L219.44 165.837L19.8204 164.155Z" fill="#0D0C13"/>
<path fill-rule="evenodd" clip-rule="evenodd" d="M20.0807 168C16.6873 168 14.0749 168.078 12.1249 168.208C10.1851 168.336 8.87134 168.519 8.09279 168.74C7.58713 168.883 6.78101 169.13 6.03439 169.435C5.6618 169.587 5.2926 169.758 4.97906 169.945C4.67761 170.124 4.37614 170.347 4.19421 170.618L4.17728 170.643L3.4384 172.112L4.30357 172.541L5.01341 171.132C5.08066 171.043 5.22679 170.918 5.47598 170.77C5.73244 170.617 6.05325 170.466 6.4026 170.324C7.10036 170.039 7.86681 169.804 8.3589 169.665C9.03197 169.473 10.2586 169.295 12.1897 169.167C14.1102 169.039 16.6989 168.962 20.0788 168.962C20.0793 168.962 20.0803 168.962 20.0807 168.962L129.674 169.923H129.678H166.936V168.962H129.678L20.0807 168Z" fill="#0D0C13"/>
<path fill-rule="evenodd" clip-rule="evenodd" d="M164.597 166.798C165.077 167.143 165.54 167.661 165.745 168.373C165.924 168.994 166.043 169.972 166.115 170.973C166.187 171.964 166.211 172.937 166.211 173.528V208.206C166.211 210.187 166.21 211.487 166.401 212.464C166.604 213.507 167.024 214.191 167.804 214.965C168.502 215.659 169.689 215.996 170.775 216.164C171.882 216.335 173.01 216.349 173.725 216.308H218.953V215.347H173.696L173.682 215.348C173.024 215.386 171.959 215.374 170.924 215.214C169.861 215.05 168.951 214.746 168.488 214.286C167.816 213.618 167.511 213.1 167.351 212.281C167.181 211.407 167.178 210.202 167.178 208.137V173.528C167.178 172.917 167.154 171.92 167.08 170.904C167.007 169.899 166.884 168.833 166.676 168.109C166.397 167.139 165.771 166.455 165.163 166.019C164.859 165.8 164.552 165.639 164.282 165.531C164.025 165.428 163.761 165.357 163.549 165.357V166.318C163.579 166.318 163.708 166.337 163.92 166.422C164.119 166.502 164.357 166.626 164.597 166.798Z" fill="#0D0C13"/>
<path fill-rule="evenodd" clip-rule="evenodd" d="M219.678 127.624V126.663H21.0485C17.6551 126.663 15.0427 126.74 13.0927 126.87C11.1528 126.999 9.8391 127.181 9.06055 127.402C8.5549 127.546 7.74876 127.792 7.00215 128.097C6.62956 128.249 6.26038 128.42 5.94682 128.607C5.64537 128.786 5.3439 129.008 5.16197 129.28L5.14503 129.305L4.40616 130.774L5.27133 131.204L5.98117 129.794C6.04843 129.705 6.19455 129.58 6.44374 129.432C6.7002 129.279 7.02101 129.128 7.37036 128.986C8.06812 128.701 8.83456 128.466 9.32666 128.327C9.99974 128.135 11.2263 127.958 13.1575 127.829C15.0785 127.701 17.6677 127.624 21.0485 127.624H219.678Z" fill="#0D0C13"/>
<path fill-rule="evenodd" clip-rule="evenodd" d="M105.498 58.8877C125.621 58.3109 190.002 57.6861 219.682 57.4457L219.675 56.4844C190 56.7247 125.606 57.3496 105.47 57.9264C94.2295 58.2489 82.0083 58.7897 72.5979 59.2502C67.8928 59.4799 63.8897 59.69 61.0629 59.8428C59.6495 59.9188 58.5303 59.9808 57.7643 60.0236C57.3811 60.0452 57.0864 60.0615 56.8875 60.0731L56.5856 60.0904C56.5851 60.0904 56.5851 60.0904 56.6132 60.5701C56.5779 60.0909 56.5779 60.0909 56.5774 60.0909L56.2667 60.1135C56.063 60.1284 55.7645 60.15 55.3832 60.1783C54.6206 60.2346 53.5266 60.3153 52.2017 60.4148C49.552 60.6129 45.9791 60.884 42.2867 61.1748C34.9182 61.7549 27.0253 62.4178 25.0821 62.7398L25.2408 63.6877C27.1308 63.3748 34.9637 62.7158 42.3631 62.1332C46.0541 61.8424 49.6256 61.5713 52.2743 61.3733C53.5986 61.2743 54.6922 61.193 55.4548 61.1368C55.8361 61.1089 56.1346 61.0868 56.3379 61.0724L56.6287 61.0508L56.6413 61.0498H56.6422H56.6437H56.6461H56.6471L56.648 61.0493L56.6601 61.0488L56.9427 61.033C57.1416 61.0214 57.4358 61.0051 57.8185 60.9835C58.584 60.9407 59.7027 60.8787 61.1156 60.8027C63.9409 60.6504 67.9421 60.4403 72.6454 60.2101C82.0528 59.7501 94.2672 59.2093 105.498 58.8877ZM56.6132 60.5701L56.5774 60.0909L56.5817 60.0904H56.5856L56.6132 60.5701Z" fill="#0D0C13"/>
<path d="M145.646 77.1533H168.388C169.991 77.1533 171.291 78.4445 171.291 80.0374V85.3248C171.291 86.9176 169.991 88.2088 168.388 88.2088H145.646C144.042 88.2088 142.743 86.9176 142.743 85.3248V80.0374C142.743 78.4445 144.042 77.1533 145.646 77.1533Z" fill="#C4C4C4"/>
<path d="M145.646 93.0155H168.388C169.991 93.0155 171.291 94.3067 171.291 95.8995V101.187C171.291 102.78 169.991 104.071 168.388 104.071H145.646C144.042 104.071 142.743 102.78 142.743 101.187V95.8995C142.743 94.3067 144.042 93.0155 145.646 93.0155Z" fill="#C4C4C4"/>
<path d="M35.5647 76.6726H126.049C129.122 76.6726 131.614 79.1475 131.614 82.2003V82.681C131.614 85.7339 129.122 88.2087 126.049 88.2087H35.5647C32.4915 88.2087 30.0001 85.7339 30.0001 82.681V82.2003C30.0001 79.1475 32.4915 76.6726 35.5647 76.6726Z" fill="#FF2B35"/>
<path d="M33.1453 93.0155H126.049C129.122 93.0155 131.614 95.4904 131.614 98.5432V99.0239C131.614 102.077 129.122 104.552 126.049 104.552H33.1453C30.0721 104.552 27.5808 102.077 27.5808 99.0239V98.5432C27.5808 95.4904 30.0721 93.0155 33.1453 93.0155Z" fill="#C4C4C4"/>
<path fill-rule="evenodd" clip-rule="evenodd" d="M29.0324 80.518H133.065V79.797H29.0324V80.518Z" fill="#0D0C13"/>
<path fill-rule="evenodd" clip-rule="evenodd" d="M26.613 96.8609H133.065V96.1399H26.613V96.8609Z" fill="#0D0C13"/>
<path fill-rule="evenodd" clip-rule="evenodd" d="M29.0324 85.3248H133.065V84.6038H29.0324V85.3248Z" fill="#0D0C13"/>
<path fill-rule="evenodd" clip-rule="evenodd" d="M26.613 101.668H133.065V100.947H26.613V101.668Z" fill="#0D0C13"/>
<path d="M94.3553 82.2004C94.3553 80.2094 92.7304 78.5953 90.7262 78.5953H70.8874C68.8832 78.5953 67.2584 80.2094 67.2584 82.2004V83.1617C67.2584 85.1527 68.8832 86.7668 70.8874 86.7668H90.7262C92.7304 86.7668 94.3553 85.1527 94.3553 83.1617V82.2004Z" fill="#FF2B35"/>
<path fill-rule="evenodd" clip-rule="evenodd" d="M70.8874 79.3163H90.7262C92.3298 79.3163 93.6295 80.6074 93.6295 82.2004V83.1617C93.6295 84.7547 92.3298 86.0458 90.7262 86.0458H70.8874C69.2839 86.0458 67.9842 84.7547 67.9842 83.1617V82.2004C67.9842 80.6074 69.2839 79.3163 70.8874 79.3163ZM90.7262 78.5953C92.7304 78.5953 94.3553 80.2094 94.3553 82.2004V83.1617C94.3553 85.1527 92.7304 86.7668 90.7262 86.7668H70.8874C68.8832 86.7668 67.2584 85.1527 67.2584 83.1617V82.2004C67.2584 80.2094 68.8832 78.5953 70.8874 78.5953H90.7262Z" fill="#0D0C13"/>
</g>
<path d="M212.633 267.586V0H283.99V104.115L367.347 0H453.947L350.156 126.171L471.786 267.586H373.509L283.99 160.227V267.586H212.633Z" fill="white"/>
<path d="M452.688 267.586V0H535.072C554.1 0 571.777 3.40563 588.102 10.2169C604.428 17.0282 618.699 26.5423 630.916 38.7594C643.241 50.9764 652.809 65.2477 659.621 81.5731C666.54 97.7904 670 115.305 670 134.117C670 152.929 666.594 170.444 659.783 186.661C652.972 202.879 643.403 217.042 631.078 229.151C618.861 241.26 604.536 250.72 588.102 257.531C571.777 264.234 554.1 267.586 535.072 267.586H452.688ZM524.044 203.689H526.639C536.369 203.689 545.235 202.014 553.235 198.662C561.344 195.202 568.317 190.391 574.155 184.229C580.102 177.958 584.697 170.552 587.94 162.011C591.184 153.47 592.805 144.064 592.805 133.793C592.805 123.63 591.184 114.278 587.94 105.737C584.697 97.1958 580.102 89.7899 574.155 83.5192C568.317 77.2485 561.344 72.4373 553.235 69.0858C545.235 65.6261 536.369 63.8962 526.639 63.8962H524.044V203.689Z" fill="white"/>
<path d="M372.353 267.586L281.79 160.326L259.477 133.224L281.79 104.265L366.119 0.245728H453.729L348.728 126.301L471.776 267.586H372.353Z" fill="url(#paint0_linear_1347_151)"/>
<path d="M0 257.738H652.128V320.626C652.128 321.731 651.232 322.626 650.128 322.626H2.00001C0.89544 322.626 0 321.731 0 320.626V257.738Z" fill="white"/>
<path d="M669.384 320.627V135.544C669.384 133.669 667.037 132.825 665.843 134.27L512.866 319.352C511.788 320.656 512.716 322.627 514.408 322.627H667.384C668.489 322.627 669.384 321.731 669.384 320.627Z" fill="white"/>
<path d="M160.48 313V266.92H168.192V288.296L186.592 266.92H196.064L176.256 289.512L197.408 313H187.616L168.192 291.496V313H160.48ZM215.067 313.96C211.568 313.96 208.496 313.203 205.851 311.688C203.206 310.173 201.136 308.072 199.643 305.384C198.171 302.696 197.435 299.603 197.435 296.104C197.435 292.328 198.16 289.053 199.611 286.28C201.062 283.485 203.078 281.32 205.659 279.784C208.24 278.248 211.227 277.48 214.619 277.48C218.203 277.48 221.243 278.323 223.739 280.008C226.256 281.672 228.123 284.029 229.339 287.08C230.555 290.131 231.014 293.725 230.715 297.864H223.067V295.048C223.046 291.293 222.384 288.552 221.083 286.824C219.782 285.096 217.734 284.232 214.939 284.232C211.782 284.232 209.435 285.213 207.899 287.176C206.363 289.117 205.595 291.965 205.595 295.72C205.595 299.219 206.363 301.928 207.899 303.848C209.435 305.768 211.675 306.728 214.619 306.728C216.518 306.728 218.15 306.312 219.515 305.48C220.902 304.627 221.968 303.4 222.715 301.8L230.331 304.104C229.008 307.219 226.96 309.64 224.187 311.368C221.435 313.096 218.395 313.96 215.067 313.96ZM203.163 297.864V292.04H226.939V297.864H203.163ZM254.463 313.96C251.092 313.96 248.266 313.16 245.983 311.56C243.7 309.96 241.983 307.784 240.831 305.032C239.679 302.259 239.103 299.155 239.103 295.72C239.103 292.243 239.679 289.128 240.831 286.376C241.983 283.624 243.668 281.459 245.887 279.88C248.127 278.28 250.89 277.48 254.175 277.48C257.439 277.48 260.266 278.28 262.655 279.88C265.066 281.459 266.932 283.624 268.255 286.376C269.578 289.107 270.239 292.221 270.239 295.72C270.239 299.176 269.588 302.28 268.287 305.032C266.986 307.784 265.151 309.96 262.783 311.56C260.415 313.16 257.642 313.96 254.463 313.96ZM237.791 313V266.92H245.567V288.744H244.607V313H237.791ZM253.279 307.048C255.284 307.048 256.938 306.547 258.239 305.544C259.54 304.541 260.5 303.187 261.119 301.48C261.759 299.752 262.079 297.832 262.079 295.72C262.079 293.629 261.759 291.731 261.119 290.024C260.479 288.296 259.487 286.931 258.143 285.928C256.799 284.904 255.092 284.392 253.023 284.392C251.06 284.392 249.46 284.872 248.223 285.832C246.986 286.771 246.068 288.093 245.471 289.8C244.895 291.485 244.607 293.459 244.607 295.72C244.607 297.96 244.895 299.933 245.471 301.64C246.068 303.347 246.996 304.68 248.255 305.64C249.535 306.579 251.21 307.048 253.279 307.048ZM286.957 313.96C284.461 313.96 282.349 313.491 280.621 312.552C278.893 311.592 277.581 310.323 276.685 308.744C275.81 307.165 275.373 305.427 275.373 303.528C275.373 301.864 275.65 300.371 276.205 299.048C276.759 297.704 277.613 296.552 278.765 295.592C279.917 294.611 281.41 293.811 283.245 293.192C284.631 292.744 286.253 292.339 288.109 291.976C289.986 291.613 292.013 291.283 294.189 290.984C296.386 290.664 298.679 290.323 301.069 289.96L298.317 291.528C298.338 289.139 297.805 287.379 296.717 286.248C295.629 285.117 293.794 284.552 291.213 284.552C289.655 284.552 288.151 284.915 286.701 285.64C285.25 286.365 284.237 287.613 283.661 289.384L276.621 287.176C277.474 284.253 279.095 281.907 281.485 280.136C283.895 278.365 287.138 277.48 291.213 277.48C294.285 277.48 296.983 277.981 299.309 278.984C301.655 279.987 303.394 281.629 304.525 283.912C305.143 285.128 305.517 286.376 305.645 287.656C305.773 288.915 305.837 290.291 305.837 291.784V313H299.085V305.512L300.205 306.728C298.647 309.224 296.823 311.059 294.733 312.232C292.663 313.384 290.071 313.96 286.957 313.96ZM288.493 307.816C290.242 307.816 291.735 307.507 292.973 306.888C294.21 306.269 295.191 305.512 295.917 304.616C296.663 303.72 297.165 302.877 297.421 302.088C297.826 301.107 298.05 299.987 298.093 298.728C298.157 297.448 298.189 296.413 298.189 295.624L300.557 296.328C298.231 296.691 296.237 297.011 294.573 297.288C292.909 297.565 291.479 297.832 290.285 298.088C289.09 298.323 288.034 298.589 287.117 298.888C286.221 299.208 285.463 299.581 284.845 300.008C284.226 300.435 283.746 300.925 283.405 301.48C283.085 302.035 282.925 302.685 282.925 303.432C282.925 304.285 283.138 305.043 283.565 305.704C283.991 306.344 284.61 306.856 285.421 307.24C286.253 307.624 287.277 307.816 288.493 307.816ZM330.776 313.96C327.405 313.96 324.578 313.16 322.296 311.56C320.013 309.96 318.296 307.784 317.144 305.032C315.992 302.259 315.416 299.155 315.416 295.72C315.416 292.243 315.992 289.128 317.144 286.376C318.296 283.624 319.981 281.459 322.2 279.88C324.44 278.28 327.202 277.48 330.488 277.48C333.752 277.48 336.578 278.28 338.968 279.88C341.378 281.459 343.245 283.624 344.568 286.376C345.89 289.107 346.552 292.221 346.552 295.72C346.552 299.176 345.901 302.28 344.6 305.032C343.298 307.784 341.464 309.96 339.096 311.56C336.728 313.16 333.954 313.96 330.776 313.96ZM314.104 313V266.92H321.88V288.744H320.92V313H314.104ZM329.592 307.048C331.597 307.048 333.25 306.547 334.552 305.544C335.853 304.541 336.813 303.187 337.432 301.48C338.072 299.752 338.392 297.832 338.392 295.72C338.392 293.629 338.072 291.731 337.432 290.024C336.792 288.296 335.8 286.931 334.456 285.928C333.112 284.904 331.405 284.392 329.336 284.392C327.373 284.392 325.773 284.872 324.536 285.832C323.298 286.771 322.381 288.093 321.784 289.8C321.208 291.485 320.92 293.459 320.92 295.72C320.92 297.96 321.208 299.933 321.784 301.64C322.381 303.347 323.309 304.68 324.568 305.64C325.848 306.579 327.522 307.048 329.592 307.048ZM366.418 313V266.92H381.106C381.49 266.92 382.247 266.931 383.378 266.952C384.53 266.973 385.639 267.048 386.706 267.176C390.354 267.645 393.436 268.947 395.954 271.08C398.492 273.192 400.412 275.891 401.714 279.176C403.015 282.461 403.666 286.056 403.666 289.96C403.666 293.864 403.015 297.459 401.714 300.744C400.412 304.029 398.492 306.739 395.954 308.872C393.436 310.984 390.354 312.275 386.706 312.744C385.66 312.872 384.562 312.947 383.41 312.968C382.258 312.989 381.49 313 381.106 313H366.418ZM374.258 305.736H381.106C381.746 305.736 382.556 305.715 383.538 305.672C384.54 305.629 385.426 305.533 386.194 305.384C388.37 304.979 390.14 304.008 391.506 302.472C392.871 300.936 393.874 299.069 394.514 296.872C395.175 294.675 395.506 292.371 395.506 289.96C395.506 287.464 395.175 285.117 394.514 282.92C393.852 280.723 392.828 278.877 391.442 277.384C390.076 275.891 388.327 274.941 386.194 274.536C385.426 274.365 384.54 274.269 383.538 274.248C382.556 274.205 381.746 274.184 381.106 274.184H374.258V305.736ZM426.494 313.96C423.038 313.96 420.019 313.181 417.438 311.624C414.857 310.067 412.851 307.923 411.422 305.192C410.014 302.44 409.31 299.283 409.31 295.72C409.31 292.093 410.035 288.915 411.486 286.184C412.937 283.453 414.953 281.32 417.534 279.784C420.115 278.248 423.102 277.48 426.494 277.48C429.971 277.48 433.001 278.259 435.582 279.816C438.163 281.373 440.169 283.528 441.598 286.28C443.027 289.011 443.742 292.157 443.742 295.72C443.742 299.304 443.017 302.472 441.566 305.224C440.137 307.955 438.131 310.099 435.55 311.656C432.969 313.192 429.95 313.96 426.494 313.96ZM426.494 306.728C429.566 306.728 431.849 305.704 433.342 303.656C434.835 301.608 435.582 298.963 435.582 295.72C435.582 292.371 434.825 289.704 433.31 287.72C431.795 285.715 429.523 284.712 426.494 284.712C424.425 284.712 422.718 285.181 421.374 286.12C420.051 287.037 419.07 288.328 418.43 289.992C417.79 291.635 417.47 293.544 417.47 295.72C417.47 299.069 418.227 301.747 419.742 303.752C421.278 305.736 423.529 306.728 426.494 306.728ZM474.697 313V296.36C474.697 295.272 474.622 294.067 474.473 292.744C474.323 291.421 473.971 290.152 473.417 288.936C472.883 287.699 472.073 286.685 470.985 285.896C469.918 285.107 468.467 284.712 466.633 284.712C465.651 284.712 464.681 284.872 463.721 285.192C462.761 285.512 461.886 286.067 461.097 286.856C460.329 287.624 459.71 288.691 459.241 290.056C458.771 291.4 458.537 293.128 458.537 295.24L453.961 293.288C453.961 290.344 454.526 287.677 455.657 285.288C456.809 282.899 458.494 281 460.713 279.592C462.931 278.163 465.662 277.448 468.905 277.448C471.465 277.448 473.577 277.875 475.241 278.728C476.905 279.581 478.227 280.669 479.208 281.992C480.19 283.315 480.915 284.723 481.385 286.216C481.854 287.709 482.153 289.128 482.281 290.472C482.43 291.795 482.505 292.872 482.505 293.704V313H474.697ZM450.729 313V278.44H457.609V289.16H458.537V313H450.729ZM500.519 313.96C498.023 313.96 495.911 313.491 494.183 312.552C492.455 311.592 491.143 310.323 490.247 308.744C489.372 307.165 488.935 305.427 488.935 303.528C488.935 301.864 489.212 300.371 489.767 299.048C490.322 297.704 491.175 296.552 492.327 295.592C493.479 294.611 494.972 293.811 496.807 293.192C498.194 292.744 499.815 292.339 501.671 291.976C503.548 291.613 505.575 291.283 507.751 290.984C509.948 290.664 512.242 290.323 514.631 289.96L511.879 291.528C511.9 289.139 511.367 287.379 510.279 286.248C509.191 285.117 507.356 284.552 504.775 284.552C503.218 284.552 501.714 284.915 500.263 285.64C498.812 286.365 497.799 287.613 497.223 289.384L490.183 287.176C491.036 284.253 492.658 281.907 495.047 280.136C497.458 278.365 500.7 277.48 504.775 277.48C507.847 277.48 510.546 277.981 512.871 278.984C515.218 279.987 516.956 281.629 518.087 283.912C518.706 285.128 519.079 286.376 519.207 287.656C519.335 288.915 519.399 290.291 519.399 291.784V313H512.647V305.512L513.767 306.728C512.21 309.224 510.386 311.059 508.295 312.232C506.226 313.384 503.634 313.96 500.519 313.96ZM502.055 307.816C503.804 307.816 505.298 307.507 506.535 306.888C507.772 306.269 508.754 305.512 509.479 304.616C510.226 303.72 510.727 302.877 510.983 302.088C511.388 301.107 511.612 299.987 511.655 298.728C511.719 297.448 511.751 296.413 511.751 295.624L514.119 296.328C511.794 296.691 509.799 297.011 508.135 297.288C506.471 297.565 505.042 297.832 503.847 298.088C502.652 298.323 501.596 298.589 500.679 298.888C499.783 299.208 499.026 299.581 498.407 300.008C497.788 300.435 497.308 300.925 496.967 301.48C496.647 302.035 496.487 302.685 496.487 303.432C496.487 304.285 496.7 305.043 497.127 305.704C497.554 306.344 498.172 306.856 498.983 307.24C499.815 307.624 500.839 307.816 502.055 307.816Z" fill="black"/>
<defs>
<linearGradient id="paint0_linear_1347_151" x1="365.627" y1="0.245728" x2="365.627" y2="267.586" gradientUnits="userSpaceOnUse">
<stop stop-color="#3874CB"/>
<stop offset="1" stop-color="#1C57AE"/>
</linearGradient>
<clipPath id="clip0_1347_151">
<rect width="220.162" height="263.409" fill="white" transform="matrix(-1 0 0 1 220.162 0.245728)"/>
</clipPath>
</defs>
</svg>
